<svg xmlns="http://www.w3.org/2000/svg" viewBox="0 0 128 160" x="0px" y="0px"><g><path d="M105.163,58.27h.008l.031-.016.194-.07a2.654,2.654,0,0,0,.465-.232c.015-2.348-.039-4.688-.21-7.028-.8-10.763-4.014-21.519-11.553-29.546a35,35,0,0,0-14.389-9.523,27.04,27.04,0,0,0-8.633-1.341c-.968.008-2.812.721-3.626.31-1.038-.527-1.038-2.3-1.937-3.022-.217,3.1.062,37.078-.349,37.078,2.278.124,4.556.232,6.835.2,4.021-.054,8.337-.442,12.266.667,8.2,2.324,13,9.716,14.072,17.907,1.069,8.206-.706,16.272-.5,24.47.139,5.293.612,13.654,5.292,17.218,1.038.349,2.325.674,2.309.085-.325-.937-.976-1.983-1.193-2.719a17.63,17.63,0,0,1-3.836-7.184,34.506,34.506,0,0,1-.744-10.391c.14-2.634.318-4.261.5-4.261s.333,1.635.426,4.269a47.405,47.405,0,0,0,1.085,10.05,18.366,18.366,0,0,0,2.007,4.766,20.863,20.863,0,0,1-.225-3.107c.024-4.975.318-9.981.721-14.94.6-7.547,1.519-15.157,1.666-22.758l-.263.124-.062.023-.086.031-.116.039a3.418,3.418,0,0,1-.5.132c-.193.031-.41.069-.6.085l-.558.023c-.372,0-.751-.015-1.123-.039-.543-.038-1.1-.085-1.635-.108-.047.581-.086,1.162-.124,1.759-.031.457-.07.914-.1,1.356s-.023.9-.031,1.333c-.023.875-.047,1.72-.062,2.526-.054,1.619-.116,3.084-.186,4.308-.3,2.464-.566,3.952-.744,3.929s-.232-1.542-.178-3.96c-.047-1.217-.085-2.666-.1-4.277,0-.814-.008-1.666-.008-2.55,0-.441-.007-.891.008-1.348.031-.465.062-.93.1-1.4.062-.83.124-1.643.186-2.426l.046-.573.589.008c.86.015,1.62.131,2.34.2.357.039.7.062,1.031.077.17,0,.325.008.488.008.132-.008.271-.015.4-.031a1.818,1.818,0,0,0,.457-.093l.116-.031C105.132,58.277,105.155,58.27,105.163,58.27Zm3.107,46.624a2.9,2.9,0,0,1-.139,1.209c-.535,1.751-2.27,3.959-3.5,2.65-3.223,4.54-7.423,8.756-13.111,9.941.659,1.945.551,4.572-1.945,5.107-3.711.806-6.981-.992-10.251-2.526-3.611-1.69-7.423-1.511-11.05-2.666-6.563,1.085-13.831-.713-20.139-2.456a56.188,56.188,0,0,1-17.528-8.7,1.034,1.034,0,0,1-.131-.116,10.1,10.1,0,0,1-8.16,2.022,1.136,1.136,0,0,1-1-.031,4.528,4.528,0,0,1-2.162-1.968,1.166,1.166,0,0,1,0-1.178c3.309-5.626,2.627-11.654,2.3-17.915-.279-5.571-.829-11.12-1.294-16.683-.883-10.647-1.635-21.8,1.178-32.243C25.181,25.128,36.091,11.227,51.278,8.654c2.534-.434,5.533.171,7.951-.542,2.208-.651,3.053-3.6,5.269-4.084,1.929-.418,2.332,3.937,4.541,4.285,1.782.287,3.781-.085,5.617.124A30.022,30.022,0,0,1,80.127,9.6,37,37,0,0,1,98.034,22.525a45.3,45.3,0,0,1,8.477,18.046c2.325,10.655,1.7,21.526.768,32.313-.489,5.532-1.039,11.073-1.24,16.636a40.734,40.734,0,0,0,.062,8.423C106.511,100.337,107.875,102.476,108.27,104.894Zm-5.772,2.82c-.132-.085-.256-.178-.38-.271-.3-.108-.581-.225-.845-.325-.286-.117-.581-.225-.875-.334-2.79,4.51-8.4,6.2-13.437,6.92-1.1.163-2.2.294-3.308.418.31.078.62.155.937.241,1.666.48,3.921,1.023,5.44,2.231C95.191,116.044,99.755,111.945,102.5,107.714Zm-3.642-3.928a23.5,23.5,0,0,1-2.743-8.524c-1.031-7.16-.163-14.01.193-21.17.512-10.2-1.27-24.253-13.692-26.33-5.036-.837-10.151-.108-15.226-.48a86.776,86.776,0,0,0-15.017-.14c-7.1.736-16.365,2.387-18.186,10.446-2.526,11.15,1.7,23,1.821,34.226a30.161,30.161,0,0,1-.8,8.152c6.548-2.232,13.321-1.953,20.225-1.922,7.663.039,15.412-.3,23.021.821A114.831,114.831,0,0,1,98.856,103.786Zm-14.994,7.989c4.99-.551,11.228-1.488,14.289-5.843a78.687,78.687,0,0,0-9.066-2.712,119.977,119.977,0,0,0-27.973-2.859c-8.23.031-16.792-.853-24.711,1.666,5.494,5.408,13.692,7.965,21.084,9.29a121.786,121.786,0,0,0,14.645,1.24C76.051,112.441,80,112.209,83.862,111.775Zm2,9.709c1.658.728,2.867.162,3.626-1.682a4.742,4.742,0,0,0-3.045-2.441c-5.47-1.8-10.864-2.115-16.381-2.425-.705.008-1.41.023-2.107.023-.024.349-.039.7-.086,1.046.031.008.055.016.078.024,3.642,1.627,7.725.984,11.445,2.719C81.46,119.717,83.6,121.034,85.861,121.484Zm-20.216-6.827q-.744-.046-1.488-.116c-1.891-.163-3.851-.395-5.843-.7.047,2.882,4.518,2.65,7.152,2.479A13.2,13.2,0,0,0,65.645,114.657Zm-2.8-69.894c.069-12.343,1.123-24.7.031-37.015a5.846,5.846,0,0,0-.907,1.7,1.156,1.156,0,0,1-.194.348,1.263,1.263,0,0,1-1.426,1.046c-22.9-3.572-37.3,20.2-38.433,40.085-.163,2.789-.179,5.571-.117,8.353a5.912,5.912,0,0,1,1.325-1.713,10.406,10.406,0,0,1,4.867-1.991l.775-.147-.024.837c-.023.929-.116,1.89-.108,2.874-.016,4.239.333,8.129.348,10.957.031,2.859-.2,4.58-.364,4.58-.193,0-.294-1.767-.558-4.526a107.842,107.842,0,0,1-.728-11.026c-.008-.721.039-1.426.085-2.123a8.647,8.647,0,0,0-3.572,1.433A5.125,5.125,0,0,0,22.593,59.9a8.381,8.381,0,0,0-.651,1.619c-.024.078-.039.147-.062.233.279,6.726.991,13.436,1.5,20.162a148.3,148.3,0,0,1,.721,14.94,20.122,20.122,0,0,1-.768,5.765c-.317.96-1.441,2.673-1.394,3.8,4.122.124,7.547-1.03,9.577-3.928a18.776,18.776,0,0,0,1.875-8.694,1.033,1.033,0,0,1,.38-.86c.325-9.663-2.681-19.488-2.557-29.12.054-4.215.5-9.066,3.378-12.414,3.983-4.641,11.368-6.152,17.714-6.617a19.4,19.4,0,0,1,3.014-.356c.24-.008.481-.016.736-.031.124,0,.248-.008.38-.008l.442.023c.534.023,1.123.147,1.542.124.124.008.17-.047.263-.054.085-.023.132-.093.209-.124.062-.054.109-.14.179-.2a2.172,2.172,0,0,0,.209-.348,5.1,5.1,0,0,0,.434-1.573c.333-2.395.124-5.239.325-8.175.589-11.631.14-21.123.566-21.147.178,0,.457,2.356.705,6.192a142.144,142.144,0,0,1,.039,15.024c-.209,2.9-.023,5.665-.45,8.3a5.761,5.761,0,0,1-.627,1.953c-.062.093-.093.17-.155.263C61.026,44.67,61.933,44.717,62.84,44.763Zm-6.6,70.948a4.536,4.536,0,0,1-.255-2.263c-8.16-1.518-16.482-4.548-21.937-10.507a12.437,12.437,0,0,1-1.015,1.627,9.139,9.139,0,0,1-.643.76c-.086.124-.179.232-.272.348,5.107,3.588,10.523,6.718,16.637,8.237C51.162,114.51,53.688,115.184,56.245,115.711Z"/><path d="M102.505,53.171a2.218,2.218,0,0,1,.334,1.5,2.177,2.177,0,0,1-.52,1.069,2.374,2.374,0,0,1-1.185.667,2.963,2.963,0,0,1-1.449-.008,1.848,1.848,0,0,1-.326-.093l-.147-.046-.039-.008-.015-.008-.07-.031L99,56.177a3.489,3.489,0,0,1-.666-.4A2.3,2.3,0,0,1,97.43,54.4a2.4,2.4,0,0,1,.178-1.5,3.371,3.371,0,0,1,1.612-1.627,2.742,2.742,0,0,1,1.488-.256c.325.07.488.17.488.256s-.186.17-.488.248a4.617,4.617,0,0,0-1.015.55,2.746,2.746,0,0,0-.961,1.278,1.128,1.128,0,0,0,.41,1.4,2.346,2.346,0,0,0,.411.256,2.632,2.632,0,0,0,.48.17,2.16,2.16,0,0,0,.861.062,1.249,1.249,0,0,0,1.046-.775,2.574,2.574,0,0,0,.093-1.108c-.039-.294-.047-.488.031-.535S102.3,52.892,102.505,53.171Z"/><path d="M98.158,30.328c1.6,3.068,2.821,4.819,2.65,4.959-.108.1-1.619-1.511-3.448-4.5-.449-.736-.945-1.55-1.48-2.418s-1.085-1.813-1.751-2.7a32.066,32.066,0,0,0-5.06-5.277,33.187,33.187,0,0,0-11.476-6.618,18.5,18.5,0,0,0-2.224-.534c-.658-.1-1.224-.132-1.7-.194-.977.015-1.519-.016-1.527-.1s.527-.232,1.48-.411c.488-.015,1.116-.062,1.836-.023a15.031,15.031,0,0,1,2.372.364,29.71,29.71,0,0,1,12.088,6.517,29.434,29.434,0,0,1,5.191,5.571c.7.984,1.2,1.969,1.7,2.844C97.314,28.7,97.755,29.553,98.158,30.328Z"/><path d="M97.213,46.894a1.459,1.459,0,0,1-.078.891,1.856,1.856,0,0,1-.728.822,3.076,3.076,0,0,1-1.085.38,3.549,3.549,0,0,1-1.24-.047,2.706,2.706,0,0,1-.643-.209,3.068,3.068,0,0,1-.356-.194,1.558,1.558,0,0,1-.24-.178,3.1,3.1,0,0,1-1.163-2.317,2.245,2.245,0,0,1,.915-1.984,1.72,1.72,0,0,1,1.433-.178c.264.116.4.225.388.318s-.179.147-.465.186a1.626,1.626,0,0,0-.791.41,1.414,1.414,0,0,0-.279,1.155,2.128,2.128,0,0,0,3.433,1.4,1.211,1.211,0,0,0,.186-.83c-.039-.255-.031-.441.047-.488s.224.054.426.3A1.916,1.916,0,0,1,97.213,46.894Z"/><path d="M94.865,99.88l.178,1.155-1.069-.442-.418-.17C90.4,99.082,87.6,97.881,85.5,97.184c-2.061-.7-3.456-1-3.417-1.2.031-.148,1.418-.2,3.673.31a49.557,49.557,0,0,1,7.671,2.65,56.787,56.787,0,0,1-.38-7.338c.008-2.155.1-3.487.271-3.5s.411,1.317.636,3.448S94.377,96.665,94.865,99.88Z"/><path d="M89.123,39.835c.775,1.519-.875,3.673-3.006,3.565a3.527,3.527,0,0,1-2.565-1.287,2.883,2.883,0,0,1-.581-1.162,1.748,1.748,0,0,1,1.41-2.162c.318-.031.511,0,.542.078.117.193-.782.48-.968,1.208a1.434,1.434,0,0,0,.5,1.24,3.181,3.181,0,0,0,.751.543,2.873,2.873,0,0,0,.9.232c1.379.124,2.41-1.255,2.17-1.883-.07-.356-.427-.6-.644-.775-.255-.147-.4-.279-.387-.372s.2-.124.558-.108A1.726,1.726,0,0,1,89.123,39.835Z"/><path d="M77.446,38.549a1.736,1.736,0,0,1-.132,1.317,3.36,3.36,0,0,1-.837,1.015,4.4,4.4,0,0,1-1.2.721A4.038,4.038,0,0,1,73.7,41.9l-.341-.038-.077-.008-.047-.008h-.007l-.07-.008h-.008l-.023-.007-.194-.062a3.466,3.466,0,0,1-.728-.3A3.034,3.034,0,0,1,71.123,40.4a2.3,2.3,0,0,1,.031-2.511,2.126,2.126,0,0,1,1.387-.86c.341-.023.542.016.566.093.031.093-.132.225-.419.4a2.265,2.265,0,0,0-.744.845,1.407,1.407,0,0,0,.2,1.4,2.1,2.1,0,0,0,1.689.837,3.687,3.687,0,0,0,1.9-.659,2.883,2.883,0,0,0,.644-.6.968.968,0,0,0,.178-.535c.015-.333-.411-.612-.636-.79-.263-.171-.41-.31-.387-.4s.217-.116.573-.077a2.318,2.318,0,0,1,.651.217c.124.085.248.178.388.287A1.944,1.944,0,0,1,77.446,38.549Z"/><path d="M67.1,14.753c.365,0,.558,5.548.45,12.39.007,6.85-.279,12.406-.643,12.406S66.249,34,66.241,27.158C66.357,20.3,66.737,14.753,67.1,14.753Z"/><path d="M57.57,37.363a1.3,1.3,0,0,1,.372.938,2.736,2.736,0,0,1-1.17,1.953,3.59,3.59,0,0,1-1.17.612,3.389,3.389,0,0,1-.79.124l-.3-.016a2.34,2.34,0,0,1-.4-.062,2.727,2.727,0,0,1-2.13-1.852,2.156,2.156,0,0,1,.581-2.278,1.9,1.9,0,0,1,1.48-.4c.3.086.465.171.465.264s-.171.17-.473.248a1.81,1.81,0,0,0-.814.55,1.252,1.252,0,0,0-.1,1.232,1.65,1.65,0,0,0,1.255.961,2.543,2.543,0,0,0,2.642-1.418.83.83,0,0,0-.279-.775c-.2-.178-.325-.326-.294-.411s.209-.1.55-.031A1.518,1.518,0,0,1,57.57,37.363Z"/><path d="M56.641,13.071c0,.093-.442.186-1.225.271a31.318,31.318,0,0,0-3.27.481,20.489,20.489,0,0,0-2.193.55c-.387.124-.8.225-1.2.372s-.821.318-1.247.488a28.489,28.489,0,0,0-5.192,2.859,48.121,48.121,0,0,0-7.973,7.393c-1.86,2.1-2.984,3.463-3.139,3.347-.131-.1.713-1.635,2.426-3.936a36.766,36.766,0,0,1,7.942-7.873,25.58,25.58,0,0,1,5.5-2.914c.449-.155.891-.31,1.325-.457.434-.131.868-.224,1.278-.333A18.18,18.18,0,0,1,52,12.908a16.888,16.888,0,0,1,3.409-.077C56.207,12.9,56.641,12.986,56.641,13.071Z"/><path d="M48.047,38.564A1.872,1.872,0,0,1,48.5,40.1,2.813,2.813,0,0,1,47.055,42a3.963,3.963,0,0,1-2.851.481,1.688,1.688,0,0,1-.349-.109l-.155-.054-.031-.008-.023-.008-.07-.031-.015-.007-.086-.047a3.154,3.154,0,0,1-.643-.457,2.351,2.351,0,0,1-.736-1.395,2.4,2.4,0,0,1,1-2.231,2.3,2.3,0,0,1,1.5-.45c.341.039.511.14.511.217.016.1-.178.178-.472.287a2.734,2.734,0,0,0-.938.643,1.368,1.368,0,0,0,.868,2.387,1.735,1.735,0,0,1,.2.038l.256.008a2.711,2.711,0,0,0,.512-.031,3.566,3.566,0,0,0,.945-.294A2.121,2.121,0,0,0,47.6,39.889a1.683,1.683,0,0,0,.007-1.069c-.1-.271-.139-.473-.069-.535S47.776,38.316,48.047,38.564Z"/><path d="M43.4,95.371c1.418.17,2.263.317,2.263.488,0,.155-.876.3-2.286.364a21.874,21.874,0,0,0-5.393.635l-1.039.318.217-1.1c.093-.465.217-.938.3-1.426a28.764,28.764,0,0,0,.272-6.478c-.117-1.651-.272-2.743-.078-2.774.163-.031.628.906.992,2.65a19.06,19.06,0,0,1,.1,6.819c-.031.178-.07.356-.109.527A17.067,17.067,0,0,1,43.4,95.371Z"/><path d="M37.788,42.9a1.994,1.994,0,0,1-.031,2.208,3.224,3.224,0,0,1-.814.945,3.524,3.524,0,0,1-.6.372l-.256.109a3.164,3.164,0,0,1-.38.1c-1.921.457-3.719-1.17-3.308-2.666a1.489,1.489,0,0,1,1.085-1.015c.286-.031.464-.008.5.077s-.077.217-.3.4a1.129,1.129,0,0,0-.372.72,1.27,1.27,0,0,0,.612.938,1.967,1.967,0,0,0,1.5.279,1.147,1.147,0,0,1,.17-.039l.256-.1a1.981,1.981,0,0,0,.325-.2,2.182,2.182,0,0,0,.574-.558,1.159,1.159,0,0,0,.263-1.069c-.093-.287-.426-.481-.635-.62-.233-.124-.372-.233-.357-.326s.171-.147.481-.17A1.63,1.63,0,0,1,37.788,42.9Z"/><path d="M31.232,80.9a37.5,37.5,0,0,1,.535,9.523,28.963,28.963,0,0,1-.891,5.222,15.825,15.825,0,0,1-1.728,4.007c-.171.263-.333.519-.48.751-.179.225-.365.426-.535.62a4.713,4.713,0,0,1-.907.883c-.542.4-.875.6-.937.535-.171-.163,1.054-1.178,2.053-3.239a18.344,18.344,0,0,0,1.364-3.859,34.422,34.422,0,0,0,.759-5.021,58.058,58.058,0,0,0-.147-9.3c-.217-2.379-.473-3.844-.279-3.9C30.194,77.083,30.775,78.494,31.232,80.9Z"/><path d="M29.442,47.948a2.663,2.663,0,0,1-.085,1.348,3.183,3.183,0,0,1-2.1,2.124l-.325.077a2.638,2.638,0,0,1-.434.054,3.02,3.02,0,0,1-.8-.062,2.874,2.874,0,0,1-1.325-.7,2.4,2.4,0,0,1-.752-2.348,1.739,1.739,0,0,1,1.17-1.177c.333-.07.527-.039.558.038.047.086-.108.225-.356.426a1.525,1.525,0,0,0-.473.9,1.6,1.6,0,0,0,.643,1.256,1.938,1.938,0,0,0,.79.356,1.847,1.847,0,0,0,.465.016c.062-.008.194-.008.2-.016l.318-.085A2.208,2.208,0,0,0,28.218,48.9a1.384,1.384,0,0,0-.039-1.348,1.575,1.575,0,0,0-.96-.449c-.3-.039-.489-.109-.5-.194s.139-.194.48-.318a1.826,1.826,0,0,1,1.6.279A1.885,1.885,0,0,1,29.442,47.948Z"/></g><text x="0" y="143" fill="#000000" font-size="5px" font-weight="bold" font-family="'Helvetica Neue', Helvetica, Arial-Unicode, Arial, Sans-serif">Created by Hey Rabbit</text><text x="0" y="148" fill="#000000" font-size="5px" font-weight="bold" font-family="'Helvetica Neue', Helvetica, Arial-Unicode, Arial, Sans-serif">from the Noun Project</text></svg>